# xmcd
#
# Track frame offsets:
#	150
#	18182
#	40058
#	61983
#	85076
#	106904
#	126713
#	148483
#	171387
#	189485
#	211657
#	231723
#	254220
#	273205
#	296073
#
# Disc length: 4192 seconds
#
# Revision: 3
# Processed by: cddbd v1.5.2PL0 Copyright (c) Steve Scherf et al.
# Submitted via: EZCDAudioConverter 8.0.2.1
#
DISCID=ec105e0f
DTITLE=Various Artist - st Lam Phương Một Mình... Lá Thư Miền Trung
DYEAR=2011
DGENRE=World Pop
TTITLE0=Vân Khánh - Lá Thư Miền Trung
TTITLE1=Quốc Đại - Bài tango cho em
TTITLE2=Hà Phương - Khúc ca ngày mùa
TTITLE3=Cẩm Ly and Quốc Đại - Biển tình
TTITLE4=Xuân Phú - Đèn khuya
TTITLE5=Khánh Loan - Một mình
TTITLE6=Xuân Phú - Chờ người
TTITLE7=Cẩm Ly and Quốc Đại - Phút nuối
TTITLE8=Cẩm Ly - Thao thức vì anh
TTITLE9=Xuân Phú - Thànhphố buồn
TTITLE10=Khánh Loan - Trăm nhớ ngàn thương
TTITLE11=Quốc Đại - Duyên kiếp
TTITLE12=Cẩm Ly and Quốc Đại - Tình nghĩa đôi ta chỉ thế thôi
TTITLE13=Xuân Phú - Bài thơ không đoạn kết
TTITLE14=FM - Mùa thu yêu thương
EXTD=
EXTT0=
EXTT1=
EXTT2=
EXTT3=
EXTT4=
EXTT5=
EXTT6=
EXTT7=
EXTT8=
EXTT9=
EXTT10=
EXTT11=
EXTT12=
EXTT13=
EXTT14=
PLAYORDER=
